<?xml version="1.0" encoding="UTF-8"?>
<svg width="162px" height="226px" viewBox="0 0 162 226" version="1.1" xmlns="http://www.w3.org/2000/svg" xmlns:xlink="http://www.w3.org/1999/xlink">
    <!-- Generator: Sketch 53.2 (72643) - https://sketchapp.com -->
    <title>sancho</title>
    <desc>Created with Sketch.</desc>
    <defs>
        <radialGradient cx="182.703432%" cy="60.5110079%" fx="182.703432%" fy="60.5110079%" r="217.743726%" gradientTransform="translate(1.827034,0.605110),scale(1.000000,0.456522),rotate(-160.226257),translate(-1.827034,-0.605110)" id="radialGradient-1">
            <stop stop-color="#178DBD" offset="0%"></stop>
            <stop stop-color="#9B699E" offset="100%"></stop>
        </radialGradient>
        <radialGradient cx="224.252393%" cy="67.3307639%" fx="224.252393%" fy="67.3307639%" r="229.978346%" gradientTransform="translate(2.242524,0.673308),scale(1.000000,0.472702),rotate(-159.899903),translate(-2.242524,-0.673308)" id="radialGradient-2">
            <stop stop-color="#178DBD" offset="0%"></stop>
            <stop stop-color="#9B699E" offset="100%"></stop>
        </radialGradient>
        <radialGradient cx="224.252393%" cy="67.3307639%" fx="224.252393%" fy="67.3307639%" r="230.298041%" gradientTransform="translate(2.242524,0.673308),scale(1.000000,0.467230),rotate(-159.683674),translate(-2.242524,-0.673308)" id="radialGradient-3">
            <stop stop-color="#178DBD" offset="0%"></stop>
            <stop stop-color="#9B699E" offset="100%"></stop>
        </radialGradient>
        <path d="M113.390198,56.8192539 C113.277892,56.8192539 113.164558,56.8186632 113.051738,56.8174819 C113.046341,56.8174819 113.041201,56.8171865 113.035804,56.8171865 C110.756019,56.7920829 108.346967,56.5242124 105.829463,55.9539171 C105.772411,55.9409223 105.714587,55.9276321 105.657535,55.9146373 C104.673766,55.6869326 103.67432,55.4131554 102.658941,55.0894663 C102.638895,55.0832642 102.617822,55.0764715 102.598033,55.0699741 C102.21203,54.9465233 101.824998,54.8159845 101.434626,54.6777668 C101.409955,54.6689067 101.383484,54.6597513 101.35907,54.6508912 C99.8325315,54.1068808 98.2743829,53.4506425 96.6871941,52.6694767 C95.7846346,52.2252902 94.1421923,51.0616632 92.5981783,49.7911244 C92.5773619,49.7739948 92.5562885,49.7565699 92.535472,49.7394404 C91.3260629,48.7400207 90.184243,47.6803523 89.5155472,46.856658 C88.7173269,45.8734819 87.7926661,44.6510829 86.8258584,43.2054093 C86.8086399,43.1794197 86.7914213,43.1534301 86.7739458,43.1274404 C86.4282902,42.608829 86.0777517,42.0615699 85.7256713,41.4868446 C85.7107657,41.4626269 85.6961171,41.4384093 85.6812115,41.4141917 C84.9978671,40.2945699 84.3104108,39.071285 83.6468549,37.7499482 C83.6322063,37.7210052 83.6173007,37.6911762 83.6026521,37.6622332 C83.3731573,37.2029845 83.1464895,36.7319223 82.9241906,36.249342 C82.9118549,36.223057 82.8997762,36.196772 82.8876976,36.1701917 C82.4451556,35.2062124 82.0190612,34.1958653 81.6189231,33.142399 C81.6083864,33.1146373 81.5981066,33.087171 81.5875699,33.0594093 C80.6554563,30.5906891 79.8657168,27.8830415 79.3370822,24.9600933 C79.3370822,24.9600933 79.3229476,24.7911606 79.2820857,24.5037979 C79.2774598,24.4721969 79.2725769,24.4388238 79.2674371,24.4045648 C79.0700664,23.0950415 78.3728444,19.806171 76.2171871,18.2293679 C76.1950857,18.2131244 76.1734983,18.1974715 76.1511399,18.1815233 C75.6536014,17.8309585 75.079993,17.5704715 74.419521,17.444658 C74.3843129,17.4378653 74.3488479,17.4313679 74.3131259,17.4254611 C74.0551049,17.3826373 73.7844913,17.3598964 73.5,17.359601 C68.2928077,17.3613731 67.6631748,24.9600933 67.6631748,24.9600933 C67.2399073,27.3000466 66.6495944,29.501487 65.9526294,31.5531917 C65.9428636,31.5821347 65.9325839,31.6116684 65.9228182,31.6403161 C63.5358671,38.6232591 59.9207465,43.8560363 57.4847098,46.856658 C56.6749248,47.8540104 55.1720297,49.1972021 53.6948339,50.3602383 C53.6727325,50.3773679 53.6508881,50.3947927 53.6287867,50.4119223 C52.333285,51.4278808 51.0657955,52.2991244 50.3130629,52.6694767 C48.8268724,53.4007306 47.3661241,54.0230052 45.9328741,54.5457513 C45.9064038,54.5554974 45.8799336,54.5649482 45.8537203,54.5746943 C44.8128986,54.9518394 43.7862115,55.2770052 42.776486,55.5528497 C42.7713462,55.5543264 42.7667203,55.5555078 42.7615804,55.5569845 C41.3766451,55.9347202 40.021778,56.2206062 38.7010909,56.4240933 C38.6645979,56.4297047 38.6293899,56.4350207 38.5928969,56.4403368 C36.8720717,56.6999378 35.2085559,56.8192539 33.6100594,56.8192539 C30.0134423,56.8192539 26.7455192,56.2155855 23.8875,55.2448135 C23.8050052,55.2167565 23.7227675,55.1884041 23.6407867,55.1597565 C20.7809685,54.1594508 18.3408199,52.7920415 16.4064336,51.302658 C15.9823951,50.9760155 15.5727483,50.6033005 15.176722,50.189829 C15.1577045,50.1697461 15.1389441,50.1499585 15.1199266,50.1298756 C13.8272517,48.7615803 12.6823479,46.9550052 11.6739073,44.8947358 C11.6649126,44.8761295 11.6564318,44.8584093 11.6471801,44.8400984 C11.0550682,43.6244922 10.510243,42.322057 10.0093636,40.9679378 C9.93663462,40.7712435 9.86467657,40.5730725 9.7937465,40.3743109 C9.58506818,39.789544 9.38384266,39.1947358 9.1910979,38.5963834 C9.17953322,38.5603523 9.16822552,38.5255026 9.15666084,38.4897668 C8.94926748,37.8415026 8.75061189,37.1864456 8.56095105,36.5302073 C8.55247028,36.5006736 8.54398951,36.4717306 8.53576573,36.4421969 C8.21580944,35.3299585 7.92180944,34.2118135 7.65170979,33.1045959 C7.64451399,33.0747668 7.63706119,33.0443472 7.62986538,33.0142228 C6.33590559,27.6884145 5.60141958,22.6405181 5.28351923,19.8643523 C4.53181469,13.3001969 0.623722028,12.0907927 0.623722028,12.0907927 L0.497795455,9.31049223 L0.491113636,9.16548187 L0.197113636,2.67663731 C2.62621154,1.64030052 27.5296049,0.258124352 33.6922972,0.258124352 C39.8552465,0.258124352 55.7559178,2.39488601 59.8469895,5.09485492 C64.496507,8.16340415 66.8610997,8.38313472 67.4429318,8.38313472 C67.5403322,8.38313472 67.5878759,8.37693264 67.5878759,8.37693264 L79.4123811,8.37693264 C79.4123811,8.37693264 79.4596678,8.38313472 79.5570682,8.38313472 C80.1391573,8.38313472 82.504007,8.16340415 87.1532675,5.09485492 C91.2443392,2.39488601 107.14501,0.258124352 113.307703,0.258124352 C119.470395,0.258124352 144.373788,1.64030052 146.802886,2.67663731 L146.554374,8.16429016 L146.549234,8.27533679 L146.46674,10.0984508 L146.462628,10.1876425 L146.376278,12.0907927 C146.376278,12.0907927 142.468442,13.3001969 141.716738,19.8643523 C141.245156,23.9834145 139.855851,33.1031192 137.084696,40.7121762 C137.073902,40.7417098 137.063108,40.7712435 137.052315,40.8007772 C136.879101,41.2736114 136.701005,41.7399482 136.516998,42.1994922 C136.505948,42.2266632 136.494383,42.2553109 136.483589,42.2824819 C136.296755,42.7461606 136.104781,43.2009793 135.906897,43.6475285 C135.893533,43.6776528 135.880427,43.7074819 135.866806,43.7376062 C134.7255,46.2931554 133.395818,48.5353523 131.855145,50.156456 C131.835614,50.1768342 131.815311,50.1980984 131.79578,50.2184767 C131.408234,50.6207254 131.007839,50.9836943 130.593566,51.302658 C130.445538,51.416658 130.29417,51.5303627 130.140231,51.642886 C130.084977,51.6830518 130.029981,51.7229223 129.974213,51.7627927 C126.068691,54.5628808 120.343657,56.8195492 113.390198,56.8192539 M112.210343,53.3047461 L112.2106,53.3047461 C117.523416,53.3047461 123.198079,51.6573575 128.616262,47.6183316 C136.04593,42.0798808 139.467792,19.4346373 133.937559,11.1569378 C130.295969,5.70679275 122.538892,4.84470466 115.670753,4.84470466 L115.67024,4.84470466 C115.234379,4.84470466 114.802117,4.8482487 114.374738,4.85415544 L114.374995,4.8538601 C113.366297,4.86774093 112.384584,4.89579793 111.446816,4.92562694 C110.490288,4.9557513 109.571538,4.99089637 108.683371,5.0304715 C108.189173,5.05262176 107.706283,5.07595337 107.232645,5.10105699 C107.206946,5.10253368 107.180733,5.10371503 107.15529,5.10519171 C106.920399,5.11789119 106.688077,5.13088601 106.458325,5.14417617 L106.458582,5.14358549 C104.495413,5.25817617 102.713937,5.40407254 101.097194,5.59043005 C101.09668,5.59043005 101.095909,5.59043005 101.095395,5.59072539 C101.093596,5.59072539 101.09154,5.59102073 101.089741,5.59131606 C100.521016,5.65658549 99.9728497,5.72717098 99.443958,5.80307254 C99.4151748,5.80720725 99.3863916,5.81134197 99.3576084,5.81547668 C98.858528,5.8878342 98.3766661,5.96521244 97.9120227,6.0476114 C97.8863234,6.05233679 97.8611381,6.05676684 97.8356958,6.06119689 C97.2906136,6.1592487 96.7694318,6.2643886 96.2703514,6.37720725 C96.2346294,6.38518135 96.1986503,6.39345078 96.1634423,6.40142487 C94.7271084,6.73190674 93.4783794,7.1282487 92.3925839,7.60433161 C92.3753654,7.61171503 92.3586608,7.61909845 92.3416993,7.6267772 C91.9094371,7.81815544 91.5033881,8.02223316 91.1217535,8.23989637 C91.0965682,8.25407254 91.0713829,8.26854404 91.0467115,8.28301554 C90.6195892,8.53080311 90.2233059,8.79601554 89.8558059,9.0798342 C89.3785699,9.44841451 88.9501626,9.82821762 88.5651871,10.2148135 C88.5456556,10.234601 88.5261241,10.2543886 88.5065927,10.2738808 C86.7790857,12.0320207 85.9466853,13.9177461 85.552715,15.4546788 C85.4118829,16.0048912 85.3024038,16.9115751 85.223507,17.9712435 C85.2211941,18.0007772 85.2191381,18.0303109 85.2168252,18.0598446 C85.1171119,19.4417254 85.0682832,21.0699171 85.0682832,22.5005285 C85.0685402,23.6620881 85.1009213,24.6936995 85.1643986,25.3582073 C86.2656136,36.8958342 89.8010664,41.4404767 93.273042,45.1953886 C97.5753619,49.847829 104.513402,53.3047461 112.210086,53.3047461 L112.210343,53.3047461 M34.7899143,53.3047461 L34.7899143,53.3047461 C34.7906853,53.3047461 34.7909423,53.3047461 34.7917133,53.3047461 C42.4398252,53.3041554 49.3388024,49.8903575 53.6462622,45.2822176 C53.6516591,45.2766062 53.6575699,45.2701088 53.6629668,45.2642021 C53.6634808,45.2639067 53.6632238,45.2639067 53.6637378,45.2636114 C53.6709336,45.2559326 53.6783864,45.2476632 53.6855822,45.2399845 C53.6884091,45.2370311 53.690722,45.2343731 53.693549,45.2314197 C53.6979178,45.2266943 53.7025437,45.2219689 53.7069126,45.2169482 C53.7135944,45.2098601 53.7202762,45.202772 53.726958,45.1953886 C57.1989336,41.4404767 60.7346434,36.8958342 61.8356014,25.3582073 C61.8993357,24.6916321 61.9317168,23.6555907 61.9317168,22.489601 C61.9317168,20.316513 61.8186399,17.6915596 61.5855472,16.1643731 C61.5791224,16.1224352 61.5724406,16.0813834 61.5660157,16.0412176 C61.5292657,15.8173523 61.4896888,15.619772 61.447542,15.4546788 C61.0173357,13.7762798 60.0638916,11.681456 57.992528,9.79159585 C57.9724825,9.77298964 57.9521801,9.75467876 57.9316206,9.73636788 C57.6851643,9.51427461 57.4232885,9.29513472 57.144451,9.0798342 C55.2768829,7.63740933 52.6702028,6.67815544 49.0245,6.0363886 C48.9962308,6.03136788 48.9684755,6.02664249 48.9399493,6.02162176 C48.3707098,5.92268394 47.776285,5.83142487 47.1553899,5.74695855 C47.1302045,5.74370984 47.1037343,5.7401658 47.078549,5.73662176 C44.9778881,5.45427979 42.5786014,5.25167876 39.835715,5.10460104 L39.835972,5.10460104 C38.4916416,5.03253886 37.0673864,4.9734715 35.5536976,4.92562694 C35.1427657,4.91263212 34.7220682,4.89993264 34.2959738,4.88870984 C33.9436364,4.87984974 33.5874441,4.87128497 33.2263689,4.86419689 C33.2006696,4.86390155 33.1749703,4.86331088 33.149271,4.86272021 C32.5522762,4.85179275 31.9452587,4.84470466 31.3305315,4.84470466 L31.3297605,4.84470466 C31.3287325,4.84470466 31.3274476,4.84470466 31.3264196,4.84470466 C24.5058252,4.845 16.8099126,5.69556995 13.1382535,11.0458912 C13.1328566,11.0538653 13.1266888,11.0624301 13.121292,11.0706995 C13.1166661,11.0774922 13.1122972,11.0836943 13.1076713,11.090487 C13.1015035,11.0999378 13.0948217,11.1096839 13.0886538,11.1188394 C13.084028,11.1256321 13.0799161,11.1315389 13.0752902,11.1386269 C13.0714353,11.1445337 13.0670664,11.1510311 13.0629545,11.1569378 C13.0423951,11.1879482 13.0215787,11.2195492 13.0010192,11.2508549 C12.9794318,11.2839326 12.9578444,11.317601 12.936514,11.3512694 C11.1401329,14.1817772 10.3331748,18.5790466 10.3324038,23.3812228 C10.3306049,32.8833886 13.486736,43.9676736 18.3845087,47.6183316 C18.3981294,47.6286684 18.411236,47.6384145 18.4248566,47.6487513 C23.8304476,51.6650363 29.4889196,53.3047461 34.7883724,53.3047461 C34.7891434,53.3047461 34.7891434,53.3047461 34.7899143,53.3047461" id="path-4"></path>
        <linearGradient x1="0%" y1="50%" x2="100.000175%" y2="50%" id="linearGradient-6">
            <stop stop-color="#000000" offset="0%"></stop>
            <stop stop-color="#181818" offset="100%"></stop>
        </linearGradient>
        <path d="M0.226,0.5165 L0.226,0.5165 C1.09,0.4495 1.98375,0.39 2.91425,0.339 C3.8265,0.2885 4.7815,0.241 5.76275,0.2175 C4.7815,0.242 3.826,0.29 2.914,0.34 C2.8185,0.3455 2.724,0.3505 2.629,0.356 C2.598,0.358 2.56725,0.3595 2.53625,0.3615 C1.74175,0.4075 0.971,0.459 0.226,0.5165" id="path-7"></path>
        <linearGradient x1="-1906.06854%" y1="8039.7%" x2="669.752111%" y2="8039.7%" id="linearGradient-9">
            <stop stop-color="#E6B485" offset="0%"></stop>
            <stop stop-color="#E57287" offset="100%"></stop>
        </linearGradient>
    </defs>
    <g id="Page-1" stroke="none" stroke-width="1" fill="none" fill-rule="evenodd">
        <g id="Artboard" transform="translate(-632.000000, -158.000000)">
            <g id="sancho" transform="translate(613.000000, 157.000000)">
                <g id="ears" transform="translate(-0.000000, 0.000000)" stroke="#666666" stroke-width="3">
                    <path d="M150.088751,3.32896825 C152.963423,3.34322795 160.207574,13.0726897 169.481617,33.2899499 C172.096923,38.9912724 176.202477,49.4795086 181.798281,64.7546584 L149.868832,62.5018217 C147.884688,51.9488075 146.732567,44.095732 146.412468,38.9425953 C145.096746,17.7613653 147.091774,3.31410186 150.088751,3.32896825 Z" id="right-ear" fill="#D2D2D2" transform="translate(163.899140, 34.041808) rotate(49.000000) translate(-163.899140, -34.041808) "></path>
                    <path d="M22.0887515,3.00001146 C24.9634232,3.01427116 32.2075749,12.7437329 41.481618,32.9609931 C44.0969234,38.6623156 48.2024778,49.1505518 53.7982811,64.4257016 L21.868832,62.1728649 C19.8846889,51.6198507 18.7325678,43.7667752 18.4124686,38.6136385 C17.0967466,17.4324086 19.0917742,2.98514507 22.0887515,3.00001146 Z" id="left-ear" fill="#C4C3C3" transform="translate(35.899141, 33.712851) scale(-1, 1) rotate(49.000000) translate(-35.899141, -33.712851) "></path>
                </g>
                <g id="feet" transform="translate(43.976965, 204.383712)" fill="#000000">
                    <polygon id="Rectangle" transform="translate(100.000000, 4.500000) scale(-1, 1) translate(-100.000000, -4.500000) " points="90 0 87 9 113 9 113 0"></polygon>
                    <polygon id="Rectangle" points="3 0 26 0 26 9 0 9"></polygon>
                    <polygon id="Rectangle" points="20 13 43 13 43 22 17 22"></polygon>
                    <polygon id="Rectangle" transform="translate(82.000000, 17.500000) scale(-1, 1) translate(-82.000000, -17.500000) " points="72 13 69 22 95 22 95 13"></polygon>
                </g>
                <g id="legs" transform="translate(46.976965, 168.383712)">
                    <path d="M84,0 L107,0 L107,36 L84,36 C85.1578318,30.3209567 85.7367477,25.3209567 85.7367477,21 C85.7367477,16.6790433 85.1578318,9.67904327 84,0 Z" id="Rectangle" fill="#505050" transform="translate(95.500000, 18.000000) scale(-1, 1) translate(-95.500000, -18.000000) "></path>
                    <path d="M66,13 L89,13 L89,49 L66,49 C68,41.2254508 69,35.2254508 69,31 C69,26.7745492 68,20.7745492 66,13 Z" id="Rectangle" fill="#666666" transform="translate(77.500000, 31.000000) scale(-1, 1) translate(-77.500000, -31.000000) "></path>
                    <path d="M0,0 L23,0 L23,36 L0,36 C1.15783179,30.3209567 1.73674768,25.3209567 1.73674768,21 C1.73674768,16.6790433 1.15783179,9.67904327 0,0 Z" id="Rectangle" fill="#505050"></path>
                    <path d="M17,13 L40,13 L40,49 L17,49 C19,41.2254508 20,35.2254508 20,31 C20,26.7745492 19,20.7745492 17,13 Z" id="Rectangle" fill="#666666"></path>
                </g>
                <ellipse id="torso" fill="#666666" cx="102.476965" cy="144.883712" rx="67.5" ry="45.5"></ellipse>
                <path d="M42.9769645,122.543537 C54.3214793,108.169858 76.7690651,98.3837117 102.60749,98.3837117 C127.050103,98.3837117 148.458333,107.141106 160.303508,120.255086 C159.156162,122.061442 157.759456,123.797298 156.06001,125.456963 C144.424798,136.819813 120.239229,144.383712 100.138284,144.383712 C77.6187614,144.383712 54.4331233,136.2677 42.9769692,122.543531 Z" id="head-shadow" fill="#3E3E3E"></path>
                <path d="M84.5444028,10.0301342 C86.8051023,10.0301342 82.2837032,14.3529378 81.0583142,17.5208863 C79.8329252,20.6888348 79.4529059,23.6034737 79.4529059,23.730698 C79.4529059,23.8579223 87.9769645,19.1263838 89.9769645,14.578259 C92.093297,9.7026239 89.8403981,2.29809645 90.9086813,2.29809645 C91.9769645,2.29809645 99.0747648,5.39067355 101.219338,13.4605347 C102.788763,19.3661599 102.476965,19.8164719 102.476965,19.8164719 C102.476965,19.8164719 103.374364,17.5208863 109.312245,11.7817405 C115.250126,6.0425947 123.870533,5.24727185 125.671235,5.24727185 C127.471937,5.24727185 120.911173,11.5064924 119.976965,14.578259 C118.67888,19.8164719 118.807725,20.4866059 118.814745,22.8837117 C118.817836,23.9392165 123.499322,15.446687 127.471937,11.7817405 C133.90713,5.84493545 144.915042,0.968568611 145.690643,2.29809645 C146.802775,4.2045014 136.146403,11.6394325 134.12644,23.5641568 C133.434771,27.6473816 135.384945,34.9205666 139.976965,45.3837117 L60.9769645,45.3837117 C61.3785005,37.9646955 62.750243,31.4661373 65.092192,25.8880369 C68.6051154,17.5208863 82.2837032,10.0301342 84.5444028,10.0301342 Z" id="hair" fill="#000000"></path>
                <path d="M100.007758,141.383712 C120.108703,141.383712 144.294272,132.826574 155.929484,119.971632 C164.594204,110.398582 165.389117,98.5848398 165.389117,85.3837117 C165.389117,54.4557657 135.07784,29.3837117 100.007758,29.3837117 C64.9376765,29.3837117 36.2058737,56.3049463 35.041003,85.3837117 C34.6196916,95.9009435 36.2058737,106.973172 41.9304536,115.383712 C53.03014,131.691345 76.8705288,141.383712 100.007758,141.383712 Z" id="head" fill="#666666"></path>
                <g id="Group" transform="translate(69.976965, 107.383712)">
                    <path d="M33,53 C50.673112,53 65,48 65,28.5 C65,9 50.673112,4 33,4 C15.326888,4 1,9 1,28.5 C1,48 15.326888,53 33,53 Z" id="snout" fill="#3E3E3E"></path>
                    <path d="M33,49 C51.2253967,49 66,44 66,24.5 C66,5 51.2253967,0 33,0 C14.7746033,0 1.60828615e-15,5 0,24.5 C0,44 14.7746033,49 33,49 Z" id="snout" fill="#C4C3C3"></path>
                    <circle id="Oval" fill="#7E7E7E" cx="20" cy="20" r="5"></circle>
                    <circle id="Oval" fill="#7E7E7E" cx="45" cy="20" r="5"></circle>
                </g>
                <g id="sunglasses" transform="translate(28.976965, 68.383712)">
                    <g id="left-lense" transform="translate(9.000000, 3.000000)">
                        <path d="M25.213208,51 C40.5420779,51 53.996559,37.9990327 53.996559,24.523161 C53.996559,18.094756 54.2817237,10.2173444 49.6600819,6.13639378 C44.5933717,1.66244372 34.771701,1 26.7551733,1 C19.1736828,1 10.5511283,1.0776495 5.54186401,5.12114364 C0.422993132,9.25311256 0,17.7123073 0,24.523161 C0,37.9990327 9.88433818,51 25.213208,51 Z" id="Oval" fill="#3C64A1"></path>
                        <path d="M12.3091581,47 C11.007885,46.2728506 9.71252567,45.4119105 8.43244353,44.4003808 C8.28632444,44.2854888 8.1426694,44.1603975 8,44.0308066 L23.68846,1 C24.0972485,1.01199917 24.4998768,1.02489827 24.8943737,1.03809735 C25.3724025,1.05429622 25.8413142,1.07139503 26.3013552,1.08999374 C27.236961,1.12749113 28.1365914,1.17038815 29,1.21928475 L12.3091581,47" id="Fill-15067" fill="url(#radialGradient-1)"></path>
                        <path d="M3.53044058,37.6665854 C2.71188511,35.3037428 2.03410473,35.3274115 1.12954638,30.5171499 L11.3638948,1.88427446 C14.0131116,1.21423728 16.9069666,1.04483503 19.6423971,1.04681379 C19.8776078,1.04698394 20.1114585,1.04829832 20.343949,1.05075692 L6.07420814,41.6948481 L3.53044058,37.6665854 Z" id="Fill-15060" fill="url(#radialGradient-2)" transform="translate(10.736748, 21.370822) rotate(2.000000) translate(-10.736748, -21.370822) "></path>
                    </g>
                    <g id="right-lense" transform="translate(84.000000, 2.000000)">
                        <path d="M28.06129,52 C42.3868127,52 53.9999434,40.5832611 53.9999434,26.5 C53.9999434,19.3767887 54.0699957,11.2698797 49.2798191,6.64323652 C44.5993643,2.12256934 35.1410673,1 28.06129,1 C19.6856832,1 5.02487387,2.98586779 1.77524315,9.87857051 C-1.97125055,17.8251557 1.09327638,30.1502039 2.94064199,35.231565 C5.49167616,41.7972975 13.7357673,52 28.06129,52 Z" id="Oval" fill="#3C64A1"></path>
                        <path d="M4.17948496,37.2935219 C3.39889427,34.9976866 2.68467207,35.1123359 1.82198755,30.4384966 L11.7379529,3.11304537 C13.5976955,2.4839478 15.72814,1.93813312 18.4014031,1.41703961 C18.6247437,1.37350429 20.2374243,1.04419648 20.4591076,1.04657523 L6.63976881,40.9350702 L4.17948496,37.2935219 Z" id="Fill-15060" fill="url(#radialGradient-3)" transform="translate(11.140548, 20.990823) rotate(2.000000) translate(-11.140548, -20.990823) "></path>
                        <path d="M10.9271422,47 C9.61726259,46.2823359 9.54178646,45.772913 8.25323792,44.7745784 C8.1061524,44.6611851 7.14361301,43.185656 7,43.0577554 L22.6533297,1 C23.0648219,1.01184264 23.4701132,1.02457348 23.8672193,1.03760039 C24.3484097,1.05358795 24.8204228,1.07046372 25.2835065,1.08881981 C26.2253003,1.12582806 27.1308808,1.16816551 28,1.21642427 L11.1987657,46.3999495" id="Fill-15067" fill="url(#radialGradient-1)"></path>
                    </g>
                    <g id="frame">
                        <g id="Group-15053">
                            <mask id="mask-5" fill="white">
                                <use xlink:href="#path-4"></use>
                            </mask>
                            <g id="Clip-15052"></g>
                            <path d="M113.390198,56.8192539 C113.277892,56.8192539 113.164558,56.8186632 113.051738,56.8174819 C113.046341,56.8174819 113.041201,56.8171865 113.035804,56.8171865 C110.756019,56.7920829 108.346967,56.5242124 105.829463,55.9539171 C105.772411,55.9409223 105.714587,55.9276321 105.657535,55.9146373 C104.673766,55.6869326 103.67432,55.4131554 102.658941,55.0894663 C102.638895,55.0832642 102.617822,55.0764715 102.598033,55.0699741 C102.21203,54.9465233 101.824998,54.8159845 101.434626,54.6777668 C101.409955,54.6689067 101.383484,54.6597513 101.35907,54.6508912 C99.8325315,54.1068808 98.2743829,53.4506425 96.6871941,52.6694767 C95.7846346,52.2252902 94.1421923,51.0616632 92.5981783,49.7911244 C92.5773619,49.7739948 92.5562885,49.7565699 92.535472,49.7394404 C91.3260629,48.7400207 90.184243,47.6803523 89.5155472,46.856658 C88.7173269,45.8734819 87.7926661,44.6510829 86.8258584,43.2054093 C86.8086399,43.1794197 86.7914213,43.1534301 86.7739458,43.1274404 C86.4282902,42.608829 86.0777517,42.0615699 85.7256713,41.4868446 C85.7107657,41.4626269 85.6961171,41.4384093 85.6812115,41.4141917 C84.9978671,40.2945699 84.3104108,39.071285 83.6468549,37.7499482 C83.6322063,37.7210052 83.6173007,37.6911762 83.6026521,37.6622332 C83.3731573,37.2029845 83.1464895,36.7319223 82.9241906,36.249342 C82.9118549,36.223057 82.8997762,36.196772 82.8876976,36.1701917 C82.4451556,35.2062124 82.0190612,34.1958653 81.6189231,33.142399 C81.6083864,33.1146373 81.5981066,33.087171 81.5875699,33.0594093 C80.6554563,30.5906891 79.8657168,27.8830415 79.3370822,24.9600933 C79.3370822,24.9600933 79.3229476,24.7911606 79.2820857,24.5037979 C79.2774598,24.4721969 79.2725769,24.4388238 79.2674371,24.4045648 C79.0700664,23.0950415 78.3728444,19.806171 76.2171871,18.2293679 C76.1950857,18.2131244 76.1734983,18.1974715 76.1511399,18.1815233 C75.6536014,17.8309585 75.079993,17.5704715 74.419521,17.444658 C74.3843129,17.4378653 74.3488479,17.4313679 74.3131259,17.4254611 C74.0551049,17.3826373 73.7844913,17.3598964 73.5,17.359601 C68.2928077,17.3613731 67.6631748,24.9600933 67.6631748,24.9600933 C67.2399073,27.3000466 66.6495944,29.501487 65.9526294,31.5531917 C65.9428636,31.5821347 65.9325839,31.6116684 65.9228182,31.6403161 C63.5358671,38.6232591 59.9207465,43.8560363 57.4847098,46.856658 C56.6749248,47.8540104 55.1720297,49.1972021 53.6948339,50.3602383 C53.6727325,50.3773679 53.6508881,50.3947927 53.6287867,50.4119223 C52.333285,51.4278808 51.0657955,52.2991244 50.3130629,52.6694767 C48.8268724,53.4007306 47.3661241,54.0230052 45.9328741,54.5457513 C45.9064038,54.5554974 45.8799336,54.5649482 45.8537203,54.5746943 C44.8128986,54.9518394 43.7862115,55.2770052 42.776486,55.5528497 C42.7713462,55.5543264 42.7667203,55.5555078 42.7615804,55.5569845 C41.3766451,55.9347202 40.021778,56.2206062 38.7010909,56.4240933 C38.6645979,56.4297047 38.6293899,56.4350207 38.5928969,56.4403368 C36.8720717,56.6999378 35.2085559,56.8192539 33.6100594,56.8192539 C30.0134423,56.8192539 26.7455192,56.2155855 23.8875,55.2448135 C23.8050052,55.2167565 23.7227675,55.1884041 23.6407867,55.1597565 C20.7809685,54.1594508 18.3408199,52.7920415 16.4064336,51.302658 C15.9823951,50.9760155 15.5727483,50.6033005 15.176722,50.189829 C15.1577045,50.1697461 15.1389441,50.1499585 15.1199266,50.1298756 C13.8272517,48.7615803 12.6823479,46.9550052 11.6739073,44.8947358 C11.6649126,44.8761295 11.6564318,44.8584093 11.6471801,44.8400984 C11.0550682,43.6244922 10.510243,42.322057 10.0093636,40.9679378 C9.93663462,40.7712435 9.86467657,40.5730725 9.7937465,40.3743109 C9.58506818,39.789544 9.38384266,39.1947358 9.1910979,38.5963834 C9.17953322,38.5603523 9.16822552,38.5255026 9.15666084,38.4897668 C8.94926748,37.8415026 8.75061189,37.1864456 8.56095105,36.5302073 C8.55247028,36.5006736 8.54398951,36.4717306 8.53576573,36.4421969 C8.21580944,35.3299585 7.92180944,34.2118135 7.65170979,33.1045959 C7.64451399,33.0747668 7.63706119,33.0443472 7.62986538,33.0142228 C6.33590559,27.6884145 5.60141958,22.6405181 5.28351923,19.8643523 C4.53181469,13.3001969 0.623722028,12.0907927 0.623722028,12.0907927 L0.497795455,9.31049223 L0.491113636,9.16548187 L0.197113636,2.67663731 C2.62621154,1.64030052 27.5296049,0.258124352 33.6922972,0.258124352 C39.8552465,0.258124352 55.7559178,2.39488601 59.8469895,5.09485492 C64.496507,8.16340415 66.8610997,8.38313472 67.4429318,8.38313472 C67.5403322,8.38313472 67.5878759,8.37693264 67.5878759,8.37693264 L79.4123811,8.37693264 C79.4123811,8.37693264 79.4596678,8.38313472 79.5570682,8.38313472 C80.1391573,8.38313472 82.504007,8.16340415 87.1532675,5.09485492 C91.2443392,2.39488601 107.14501,0.258124352 113.307703,0.258124352 C119.470395,0.258124352 144.373788,1.64030052 146.802886,2.67663731 L146.554374,8.16429016 L146.549234,8.27533679 L146.46674,10.0984508 L146.462628,10.1876425 L146.376278,12.0907927 C146.376278,12.0907927 142.468442,13.3001969 141.716738,19.8643523 C141.245156,23.9834145 139.855851,33.1031192 137.084696,40.7121762 C137.073902,40.7417098 137.063108,40.7712435 137.052315,40.8007772 C136.879101,41.2736114 136.701005,41.7399482 136.516998,42.1994922 C136.505948,42.2266632 136.494383,42.2553109 136.483589,42.2824819 C136.296755,42.7461606 136.104781,43.2009793 135.906897,43.6475285 C135.893533,43.6776528 135.880427,43.7074819 135.866806,43.7376062 C134.7255,46.2931554 133.395818,48.5353523 131.855145,50.156456 C131.835614,50.1768342 131.815311,50.1980984 131.79578,50.2184767 C131.408234,50.6207254 131.007839,50.9836943 130.593566,51.302658 C130.445538,51.416658 130.29417,51.5303627 130.140231,51.642886 C130.084977,51.6830518 130.029981,51.7229223 129.974213,51.7627927 C126.068691,54.5628808 120.343657,56.8195492 113.390198,56.8192539 M112.210343,53.3047461 L112.2106,53.3047461 C117.523416,53.3047461 123.198079,51.6573575 128.616262,47.6183316 C136.04593,42.0798808 139.467792,19.4346373 133.937559,11.1569378 C130.295969,5.70679275 122.538892,4.84470466 115.670753,4.84470466 L115.67024,4.84470466 C115.234379,4.84470466 114.802117,4.8482487 114.374738,4.85415544 L114.374995,4.8538601 C113.366297,4.86774093 112.384584,4.89579793 111.446816,4.92562694 C110.490288,4.9557513 109.571538,4.99089637 108.683371,5.0304715 C108.189173,5.05262176 107.706283,5.07595337 107.232645,5.10105699 C107.206946,5.10253368 107.180733,5.10371503 107.15529,5.10519171 C106.920399,5.11789119 106.688077,5.13088601 106.458325,5.14417617 L106.458582,5.14358549 C104.495413,5.25817617 102.713937,5.40407254 101.097194,5.59043005 C101.09668,5.59043005 101.095909,5.59043005 101.095395,5.59072539 C101.093596,5.59072539 101.09154,5.59102073 101.089741,5.59131606 C100.521016,5.65658549 99.9728497,5.72717098 99.443958,5.80307254 C99.4151748,5.80720725 99.3863916,5.81134197 99.3576084,5.81547668 C98.858528,5.8878342 98.3766661,5.96521244 97.9120227,6.0476114 C97.8863234,6.05233679 97.8611381,6.05676684 97.8356958,6.06119689 C97.2906136,6.1592487 96.7694318,6.2643886 96.2703514,6.37720725 C96.2346294,6.38518135 96.1986503,6.39345078 96.1634423,6.40142487 C94.7271084,6.73190674 93.4783794,7.1282487 92.3925839,7.60433161 C92.3753654,7.61171503 92.3586608,7.61909845 92.3416993,7.6267772 C91.9094371,7.81815544 91.5033881,8.02223316 91.1217535,8.23989637 C91.0965682,8.25407254 91.0713829,8.26854404 91.0467115,8.28301554 C90.6195892,8.53080311 90.2233059,8.79601554 89.8558059,9.0798342 C89.3785699,9.44841451 88.9501626,9.82821762 88.5651871,10.2148135 C88.5456556,10.234601 88.5261241,10.2543886 88.5065927,10.2738808 C86.7790857,12.0320207 85.9466853,13.9177461 85.552715,15.4546788 C85.4118829,16.0048912 85.3024038,16.9115751 85.223507,17.9712435 C85.2211941,18.0007772 85.2191381,18.0303109 85.2168252,18.0598446 C85.1171119,19.4417254 85.0682832,21.0699171 85.0682832,22.5005285 C85.0685402,23.6620881 85.1009213,24.6936995 85.1643986,25.3582073 C86.2656136,36.8958342 89.8010664,41.4404767 93.273042,45.1953886 C97.5753619,49.847829 104.513402,53.3047461 112.210086,53.3047461 L112.210343,53.3047461 M34.7899143,53.3047461 L34.7899143,53.3047461 C34.7906853,53.3047461 34.7909423,53.3047461 34.7917133,53.3047461 C42.4398252,53.3041554 49.3388024,49.8903575 53.6462622,45.2822176 C53.6516591,45.2766062 53.6575699,45.2701088 53.6629668,45.2642021 C53.6634808,45.2639067 53.6632238,45.2639067 53.6637378,45.2636114 C53.6709336,45.2559326 53.6783864,45.2476632 53.6855822,45.2399845 C53.6884091,45.2370311 53.690722,45.2343731 53.693549,45.2314197 C53.6979178,45.2266943 53.7025437,45.2219689 53.7069126,45.2169482 C53.7135944,45.2098601 53.7202762,45.202772 53.726958,45.1953886 C57.1989336,41.4404767 60.7346434,36.8958342 61.8356014,25.3582073 C61.8993357,24.6916321 61.9317168,23.6555907 61.9317168,22.489601 C61.9317168,20.316513 61.8186399,17.6915596 61.5855472,16.1643731 C61.5791224,16.1224352 61.5724406,16.0813834 61.5660157,16.0412176 C61.5292657,15.8173523 61.4896888,15.619772 61.447542,15.4546788 C61.0173357,13.7762798 60.0638916,11.681456 57.992528,9.79159585 C57.9724825,9.77298964 57.9521801,9.75467876 57.9316206,9.73636788 C57.6851643,9.51427461 57.4232885,9.29513472 57.144451,9.0798342 C55.2768829,7.63740933 52.6702028,6.67815544 49.0245,6.0363886 C48.9962308,6.03136788 48.9684755,6.02664249 48.9399493,6.02162176 C48.3707098,5.92268394 47.776285,5.83142487 47.1553899,5.74695855 C47.1302045,5.74370984 47.1037343,5.7401658 47.078549,5.73662176 C44.9778881,5.45427979 42.5786014,5.25167876 39.835715,5.10460104 L39.835972,5.10460104 C38.4916416,5.03253886 37.0673864,4.9734715 35.5536976,4.92562694 C35.1427657,4.91263212 34.7220682,4.89993264 34.2959738,4.88870984 C33.9436364,4.87984974 33.5874441,4.87128497 33.2263689,4.86419689 C33.2006696,4.86390155 33.1749703,4.86331088 33.149271,4.86272021 C32.5522762,4.85179275 31.9452587,4.84470466 31.3305315,4.84470466 L31.3297605,4.84470466 C31.3287325,4.84470466 31.3274476,4.84470466 31.3264196,4.84470466 C24.5058252,4.845 16.8099126,5.69556995 13.1382535,11.0458912 C13.1328566,11.0538653 13.1266888,11.0624301 13.121292,11.0706995 C13.1166661,11.0774922 13.1122972,11.0836943 13.1076713,11.090487 C13.1015035,11.0999378 13.0948217,11.1096839 13.0886538,11.1188394 C13.084028,11.1256321 13.0799161,11.1315389 13.0752902,11.1386269 C13.0714353,11.1445337 13.0670664,11.1510311 13.0629545,11.1569378 C13.0423951,11.1879482 13.0215787,11.2195492 13.0010192,11.2508549 C12.9794318,11.2839326 12.9578444,11.317601 12.936514,11.3512694 C11.1401329,14.1817772 10.3331748,18.5790466 10.3324038,23.3812228 C10.3306049,32.8833886 13.486736,43.9676736 18.3845087,47.6183316 C18.3981294,47.6286684 18.411236,47.6384145 18.4248566,47.6487513 C23.8304476,51.6650363 29.4889196,53.3047461 34.7883724,53.3047461 C34.7891434,53.3047461 34.7891434,53.3047461 34.7899143,53.3047461" id="Fill-15051" fill="url(#linearGradient-6)" mask="url(#mask-5)"></path>
                        </g>
                        <path d="M110.937145,6.0019 L110.937483,6.0019 C110.979386,6.00051818 111.020952,5.99948182 111.062855,5.9981 C111.020952,5.99948182 110.979386,6.00051818 110.937145,6.0019" id="Fill-15079" fill="#242725"></path>
                        <g id="Group-15082" transform="translate(109.000000, 6.000000)">
                            <mask id="mask-8" fill="white">
                                <use xlink:href="#path-7"></use>
                            </mask>
                            <g id="Clip-15081"></g>
                            <path d="M0.226,0.5165 L0.226,0.5165 C1.09,0.4495 1.98375,0.39 2.91425,0.339 C3.8265,0.2885 4.7815,0.241 5.76275,0.2175 C4.7815,0.242 3.826,0.29 2.914,0.34 C2.8185,0.3455 2.724,0.3505 2.629,0.356 C2.598,0.358 2.56725,0.3595 2.53625,0.3615 C1.74175,0.4075 0.971,0.459 0.226,0.5165" id="Fill-15080" fill="url(#linearGradient-9)" mask="url(#mask-8)"></path>
                        </g>
                    </g>
                </g>
                <rect id="mouth" fill="#000000" x="87.9769645" y="144.383712" width="29" height="2" rx="1"></rect>
            </g>
        </g>
    </g>
</svg>